<?xml version="1.0" standalone="no"?>
<svg id="dc-logo" viewBox="0 0 325 191" version="1.1"
	xmlns="http://www.w3.org/2000/svg" xmlns:xlink="http://www.w3.org/1999/xlink" xml:space="preserve">
	<g id="background">
		<path d="M 45 0 L 45 191 L 0 191 L 0 0 L 45 0 Z" fill="#ffffff" id="bd-left" />
		<path d="M 0 149 L 156 149 L 156 155 L 120 191 L 0 191 L 0 149 Z" fill="#ffffff" id="bd-bottom" />
		<path d="M 111 0 L 121 0 L 156 35 L 156 155 L 120 191 L 111 191 L 111 0 Z" fill="#ffffff" id="bd-right" />
		<path d="M 0 44 L 44 44 L 111 44 L 156 44 L 156 35 L 121 0 L 0 0 L 0 45 Z" fill="#ffffff" id="bd-top" />
		<path d="M 325 0 L 325 44 L 214 44 L 170 44 L 170 35 L 205 0 L 325 0 Z" fill="#ffffff" id="bc-top" />
		<path d="M 215 0 L 215 191 L 206 191 L 170 155 L 170 35 L 205 0 L 215 0 Z" fill="#ffffff" id="bc-left" />
		<path d="M 170 149 L 325 149 L 325 191 L 205 191 L 170 156 L 170 149 Z" fill="#ffffff" id="bc-bottom" />
	</g>
	<g id="foreground">
		<path opacity="0.8" d="M 45 0 L 45 191 L 0 191 L 0 0 L 45 0 Z" fill="#6E554A" id="d-left" />
		<path opacity="0.8" d="M 0 149 L 156 149 L 156 155 L 120 191 L 0 191 L 0 149 Z" fill="#CC333F" id="d-bottom" />
		<path opacity="0.8" d="M 111 0 L 121 0 L 156 35 L 156 155 L 120 191 L 111 191 L 111 0 Z" fill="#D7BA5A" id="d-right" />
		<path opacity="0.8" d="M 0 44 L 44 44 L 111 44 L 156 44 L 156 35 L 121 0 L 0 0 L 0 45 Z" fill="#2E959F" id="d-top" />
		<path opacity="0.8" d="M 325 0 L 325 44 L 214 44 L 170 44 L 170 35 L 205 0 L 325 0 Z" fill="#CC333F" id="c-top" />
		<path opacity="0.8" d="M 215 0 L 215 191 L 206 191 L 170 155 L 170 35 L 205 0 L 215 0 Z" fill="#D66D4E" id="c-left" />
		<path opacity="0.8" d="M 170 149 L 325 149 L 325 191 L 205 191 L 170 156 L 170 149 Z" fill="#a5cb33" id="c-bottom" />
	</g>
</svg>